<?xml version="1.0" encoding="UTF-8" standalone="no"?>
<svg
   style="display:none"
   version="1.1"
   id="svg2"
   sodipodi:docname="sprites2.svg"
   width="42"
   height="42"
   inkscape:version="1.3.2 (091e20e, 2023-11-25, custom)"
   xmlns:inkscape="http://www.inkscape.org/namespaces/inkscape"
   xmlns:sodipodi="http://sodipodi.sourceforge.net/DTD/sodipodi-0.dtd"
   xmlns="http://www.w3.org/2000/svg"
   xmlns:svg="http://www.w3.org/2000/svg">
  <defs
     id="defs2" />
  <sodipodi:namedview
     id="namedview2"
     pagecolor="#ffffff"
     bordercolor="#000000"
     borderopacity="0.25"
     inkscape:showpageshadow="2"
     inkscape:pageopacity="0.0"
     inkscape:pagecheckerboard="0"
     inkscape:deskcolor="#d1d1d1"
     inkscape:zoom="4.8507525"
     inkscape:cx="52.363009"
     inkscape:cy="17.00767"
     inkscape:window-width="1920"
     inkscape:window-height="1009"
     inkscape:window-x="-8"
     inkscape:window-y="-8"
     inkscape:window-maximized="1"
     inkscape:current-layer="svg2" />
  <symbol
     id="githubsvg"
     viewBox="0 0 48 48"
     transform="translate(-4,-4)">
    <path
       clip-rule="evenodd"
       d="m 25.103079,4.1261743 c -11.538743,0 -20.884601,9.5389927 -20.884601,21.3161837 0,9.432411 5.978217,17.399336 14.279846,20.22373 1.044229,0.186516 1.435816,-0.45297 1.435816,-1.01252 0,-0.506258 -0.02611,-2.184907 -0.02611,-3.970138 -5.247256,0.985873 -6.604756,-1.305616 -7.022447,-2.504652 -0.234952,-0.61284 -1.253077,-2.504651 -2.140672,-3.010911 -0.730961,-0.399678 -1.7751909,-1.385552 -0.02611,-1.412197 1.644663,-0.02664 2.819421,1.545424 3.211008,2.184909 1.879614,3.224073 4.881775,2.318135 6.08264,1.758585 0.18274,-1.385552 0.73096,-2.318135 1.331393,-2.85104 -4.646824,-0.532905 -9.502493,-2.371426 -9.502493,-10.524865 0,-2.318136 0.809278,-4.236592 2.140671,-5.728724 -0.208846,-0.532905 -0.939808,-2.717814 0.208847,-5.64879 0,0 1.749084,-0.559549 5.743264,2.184909 1.670768,-0.479614 3.445959,-0.719421 5.22115,-0.719421 1.775192,0 3.550383,0.239807 5.221151,0.719421 3.994179,-2.771103 5.743264,-2.184909 5.743264,-2.184909 1.148653,2.930976 0.417693,5.115885 0.208847,5.64879 1.331393,1.492132 2.140671,3.383943 2.140671,5.728724 0,8.180084 -4.881776,9.99196 -9.5286,10.524865 0.757068,0.666131 1.409712,1.945103 1.409712,3.943495 0,2.851039 -0.02611,5.142528 -0.02611,5.861949 0,0.55955 0.391587,1.225681 1.435817,1.01252 C 40.009451,42.841694 45.987668,34.848124 45.987668,25.442358 45.98768,13.665167 36.64182,4.1261743 25.103079,4.1261743 Z"
       id="path1"
       style="stroke-width:2.63742" />
  </symbol>
  <symbol
     id="linkedinsvg"
     viewBox="0 0 50 50"
     transform="translate(-4,-4)">
    <path
       d="M 41,4 H 9 C 6.24,4 4,6.24 4,9 v 32 c 0,2.76 2.24,5 5,5 h 32 c 2.76,0 5,-2.24 5,-5 V 9 C 46,6.24 43.76,4 41,4 Z M 17,20 V 39 H 11 V 20 Z m -6,-5.53 c 0,-1.4 1.2,-2.47 3,-2.47 1.8,0 2.93,1.07 3,2.47 0,1.4 -1.12,2.53 -3,2.53 -1.8,0 -3,-1.13 -3,-2.53 z M 39,39 h -6 c 0,0 0,-9.26 0,-10 0,-2 -1,-4 -3.5,-4.04 H 29.42 C 27,24.96 26,27.02 26,29 c 0,0.91 0,10 0,10 H 20 V 20 h 6 v 2.56 c 0,0 1.93,-2.56 5.81,-2.56 3.97,0 7.19,2.73 7.19,8.26 z"
       id="path2" />
  </symbol>
</svg>
